<svg width="200" height="200" xmlns="http://www.w3.org/2000/svg">
 <g>
  <path stroke="null" id="svg_1" d="m190.582499,99.993678c0,48.926535 -40.555181,88.589314 -90.58492,88.589314c-50.026509,0 -90.580075,-39.662779 -90.580075,-88.589314c0,-48.918638 40.551951,-88.576678 90.580075,-88.576678c50.029739,0 90.58492,39.65804 90.58492,88.576678z"/>
  <path stroke="null" id="svg_2" d="m139.604657,44.191587c-9.201596,0.308002 -17.233812,5.275524 -23.214768,12.130546c-6.622177,7.526309 -11.021887,16.444155 -14.198917,25.55628c-5.67569,-4.552114 -10.051173,-10.442062 -19.162319,-13.004008c-7.040505,-1.979111 -14.433115,-1.16409 -21.232961,3.789216c-3.217409,2.351873 -5.438261,5.904164 -6.492964,9.25428c-2.732859,8.684081 2.871764,16.420463 5.417264,19.192482l5.567474,5.829928c1.145152,1.145136 3.91193,4.127229 2.558422,8.401351c-1.453649,4.654781 -7.1891,7.660566 -13.069916,5.893108c-2.627874,-0.78817 -6.400899,-2.700942 -5.554553,-5.390827c0.34726,-1.104069 1.154843,-1.934885 1.589322,-2.876266c0.3941,-0.822919 0.586305,-1.432605 0.707442,-1.800628c1.074085,-3.425932 -0.395715,-7.888014 -4.150974,-9.023673c-3.506523,-1.051946 -7.09219,-0.217971 -8.482847,4.193568c-1.578016,5.013327 0.877035,14.112816 14.021248,18.071039c15.400599,4.635827 28.422061,-3.568086 30.271425,-14.25655c1.164534,-6.695493 -1.930122,-11.67565 -7.592891,-18.071039l-4.617757,-4.995953c-2.794236,-2.730952 -3.753644,-7.387313 -0.860883,-10.964876c2.44213,-3.020001 5.917965,-4.305712 11.614652,-2.792553c8.3181,2.204979 12.021674,7.848526 18.204526,12.40064c-2.548731,8.192857 -4.220426,16.414145 -5.728991,23.785663l-0.927105,5.498233c-4.419092,22.668958 -7.794787,35.120142 -16.565133,42.267371c-1.766991,1.230429 -4.293109,3.068965 -8.098438,3.201643c-1.999574,0.058441 -2.644025,-1.285712 -2.671483,-1.873285c-0.043609,-1.366266 1.135461,-1.996486 1.918816,-2.609331c1.174225,-0.625481 2.946061,-1.663212 2.823309,-4.984896c-0.125983,-3.923473 -3.451608,-7.327292 -8.255109,-7.172501c-3.600203,0.118462 -9.085304,3.429091 -8.878563,9.494364c0.211587,6.265869 6.181237,10.958558 15.184167,10.661613c4.811577,-0.161109 15.558886,-2.072302 26.146293,-14.381331c12.325325,-14.112816 15.773703,-30.286877 18.367658,-42.126796l2.895991,-15.632293c1.602244,0.18796 3.325625,0.3159 5.195986,0.360126c15.350529,0.317479 23.025794,-7.455231 23.142086,-13.112994c0.079143,-3.422773 -2.293534,-6.795001 -5.619159,-6.714447c-2.375908,0.064759 -5.362348,1.614247 -6.076251,4.828526c-0.704212,3.151099 4.882644,5.998934 0.516853,8.770953c-3.101117,1.961737 -8.6589,3.342218 -16.489221,2.222354l1.42296,-7.695315c2.905682,-14.591404 6.489733,-32.537662 20.086193,-32.976763c0.993327,-0.045805 4.614527,0.041067 4.70013,2.388201c0.022612,0.778693 -0.176053,0.984027 -1.112849,2.775178c-0.956178,1.396276 -1.314744,2.590377 -1.267905,3.955063c0.129213,3.721298 3.025204,6.172679 7.221403,6.030524c5.609468,-0.183222 7.218173,-5.521926 7.126108,-8.265514c-0.235814,-6.45225 -7.18587,-10.527355 -16.377774,-10.23041z" fill="#FFFFFF"/>
 </g>
</svg>